<svg xmlns="http://www.w3.org/2000/svg" xmlns:xlink="http://www.w3.org/1999/xlink" version="1.1" x="0px" y="0px" viewBox="0 0 512 640" style="enable-background:new 0 0 512 512;" xml:space="preserve"><title>weather-Tablet-Device-Technology-Ipad-Display</title><g><path d="M195.3,244c0.7,19.5,16.7,35.2,36.4,35.2h71.5c20.1,0,36.4-16.3,36.4-36.4c0-19.7-15.7-35.8-35.3-36.4   c-4.5-18.4-21.2-32.2-41-32.2c-2.8,0-5.5,0.3-8.2,0.8c-8.5-10.6-21.6-17.4-36.3-17.4c-25.6,0-46.5,20.8-46.5,46.5   C172.5,221,181.6,235.8,195.3,244z M218.9,177.5c6.6,0,12.7,2.5,17.3,6.5c-7.1,6-12.2,14.2-14.2,23.6c-8.8,2.4-16.4,8.2-21.2,15.7   c-5.2-4.8-8.5-11.7-8.5-19.4C192.5,189.4,204.3,177.5,218.9,177.5z"/><path d="M416.8,1H95.1C78.1,1,64.2,14.9,64.2,32V480c0,17.1,13.9,31,30.9,31h321.7c17.1,0,31-13.9,31-31V32   C447.8,14.9,433.9,1,416.8,1z M95.1,21h321.7c6,0,11,4.9,11,11v369.2H84.2V32C84.2,25.9,89.1,21,95.1,21z M416.8,491H95.1   c-6,0-10.9-4.9-10.9-11v-58.9h343.6V480C427.8,486.1,422.9,491,416.8,491z"/><path d="M256,433.7c-12,0-21.8,9.8-21.8,21.8s9.8,21.8,21.8,21.8s21.8-9.8,21.8-21.8S268,433.7,256,433.7z"/></g><text x="0" y="527" fill="#000000" font-size="5px" font-weight="bold" font-family="'Helvetica Neue', Helvetica, Arial-Unicode, Arial, Sans-serif">Created by AomAm</text><text x="0" y="532" fill="#000000" font-size="5px" font-weight="bold" font-family="'Helvetica Neue', Helvetica, Arial-Unicode, Arial, Sans-serif">from the Noun Project</text></svg>